<svg width="16" height="16" viewBox="0 0 16 16" fill="none" xmlns="http://www.w3.org/2000/svg">
<path d="M8 16C8.48725 16.0002 8.95781 15.8225 9.3233 15.5002C9.6888 15.178 9.92409 14.7334 9.985 14.25C10.002 14.113 9.888 14 9.75 14H6.25C6.112 14 5.998 14.113 6.015 14.25C6.07591 14.7334 6.3112 15.178 6.67669 15.5002C7.04219 15.8225 7.51275 16.0002 8 16ZM3 5C3 3.67392 3.52678 2.40215 4.46447 1.46447C5.40215 0.526784 6.67392 0 8 0C9.32608 0 10.5979 0.526784 11.5355 1.46447C12.4732 2.40215 13 3.67392 13 5V7.947C13 7.997 13.015 8.045 13.042 8.086L14.745 10.641C14.8968 10.8697 14.9838 11.1352 14.9967 11.4093C15.0097 11.6835 14.9481 11.956 14.8185 12.198C14.689 12.4399 14.4963 12.6423 14.261 12.7835C14.0257 12.9247 13.7565 12.9995 13.482 13H2.518C2.24298 13.0007 1.97296 12.9265 1.73686 12.7855C1.50076 12.6444 1.30747 12.4418 1.1777 12.1993C1.04793 11.9568 0.986572 11.6836 1.00019 11.4089C1.0138 11.1343 1.10189 10.8685 1.255 10.64L2.958 8.086C2.98517 8.04472 2.99977 7.99642 3 7.947V5ZM8 1.5C7.07174 1.5 6.1815 1.86875 5.52513 2.52513C4.86875 3.1815 4.5 4.07174 4.5 5V7.947C4.5 8.293 4.398 8.63 4.206 8.917L2.503 11.473C2.50098 11.4759 2.49993 11.4794 2.5 11.483L2.501 11.489C2.501 11.491 2.503 11.493 2.505 11.495L2.511 11.499L2.518 11.5H13.482L13.489 11.499L13.495 11.495L13.499 11.489L13.5 11.482C13.5001 11.4784 13.499 11.4749 13.497 11.472L11.794 8.918C11.6022 8.63088 11.4999 8.2933 11.5 7.948V5C11.5 4.07174 11.1312 3.1815 10.4749 2.52513C9.8185 1.86875 8.92826 1.5 8 1.5Z" fill="#F0F6FC"/>
</svg>
