<svg width="512" height="512" viewBox="0 0 512 512" fill="none" xmlns="http://www.w3.org/2000/svg">
<g clip-path="url(#clip0_12_2)">
<path d="M33.1828 512.41C24.6912 512.41 16.1933 509.16 9.73094 502.691C-3.24365 489.723 -3.24365 468.756 9.73094 455.787L455.367 10.1469C468.335 -2.82148 489.302 -2.82148 502.271 10.1469C515.244 23.1152 515.244 44.0823 502.271 57.0507L56.6347 502.691C53.5604 505.779 49.9053 508.227 45.8803 509.895C41.8552 511.563 37.5398 512.418 33.1828 512.41Z" fill="black"/>
<path d="M478.819 512.41C470.327 512.41 461.835 509.16 455.367 502.691L9.73094 57.0507C-3.24365 44.0823 -3.24365 23.1137 9.73094 10.1469C22.6993 -2.82148 43.6602 -2.82148 56.6347 10.1469L502.271 455.787C515.244 468.756 515.244 489.724 502.271 502.691C495.802 509.191 487.31 512.41 478.819 512.41Z" fill="black"/>
</g>
<defs>
<clipPath id="clip0_12_2">
<rect width="512" height="512" fill="white"/>
</clipPath>
</defs>
</svg>
