<svg width="16" height="16" viewBox="0 0 16 16" fill="none" xmlns="http://www.w3.org/2000/svg">
<path d="M12.596 11.596L9.06102 15.132C8.92172 15.2714 8.75632 15.382 8.57427 15.4574C8.39221 15.5328 8.19708 15.5717 8.00002 15.5717C7.80295 15.5717 7.60782 15.5328 7.42577 15.4574C7.24372 15.382 7.07832 15.2714 6.93902 15.132L3.40402 11.596C2.8004 10.9924 2.32157 10.2759 1.99486 9.4873C1.66816 8.69869 1.49999 7.85346 1.49994 6.99985C1.49989 6.14625 1.66798 5.301 1.99459 4.51235C2.32121 3.72371 2.79996 3.00712 3.40352 2.4035C4.00707 1.79988 4.72361 1.32105 5.51222 0.994345C6.30083 0.667642 7.14606 0.499467 7.99966 0.49942C8.85327 0.499374 9.69852 0.667457 10.4872 0.994074C11.2758 1.32069 11.9924 1.79944 12.596 2.403C13.1997 3.00659 13.6786 3.72318 14.0053 4.51186C14.332 5.30053 14.5001 6.14583 14.5001 6.9995C14.5001 7.85316 14.332 8.69847 14.0053 9.48714C13.6786 10.2758 13.1997 10.9924 12.596 11.596ZM11.536 3.464C10.5982 2.52619 9.32628 1.99834 8.00002 1.99834C6.67376 1.99834 5.40182 2.52519 4.46402 3.463C3.52621 4.4008 2.99936 5.67274 2.99936 6.999C2.99936 8.32526 3.52621 9.59719 4.46402 10.535L8.00002 14.07L11.536 10.536C12.0005 10.0717 12.3689 9.52043 12.6202 8.91372C12.8716 8.30701 13.001 7.65672 13.001 7C13.001 6.34328 12.8716 5.69299 12.6202 5.08628C12.3689 4.47956 12.0005 3.92831 11.536 3.464ZM8.00002 9C7.73368 9.00602 7.46882 8.95877 7.22099 8.86103C6.97317 8.76328 6.74736 8.61701 6.55685 8.4308C6.36633 8.24458 6.21493 8.02218 6.11154 7.77666C6.00816 7.53113 5.95487 7.26742 5.9548 7.00101C5.95474 6.7346 6.00789 6.47087 6.11116 6.22529C6.21442 5.97971 6.3657 5.75723 6.55613 5.57092C6.74656 5.38462 6.97228 5.23823 7.22006 5.14036C7.46784 5.04249 7.73268 4.99511 7.99902 5.001C8.52158 5.01256 9.01885 5.22822 9.38439 5.60184C9.74992 5.97545 9.95467 6.47732 9.9548 7.00001C9.95493 7.5227 9.75044 8.02467 9.38509 8.39847C9.01974 8.77226 8.52257 8.98818 8.00002 9Z" fill="#7D8590"/>
</svg>
