<svg width="24" height="24" viewBox="0 0 24 24" fill="none" xmlns="http://www.w3.org/2000/svg">
<path d="M1.5 4.125C1.5 3.82663 1.61853 3.54048 1.8295 3.3295C2.04048 3.11853 2.32663 3 2.625 3H21.375C21.6734 3 21.9595 3.11853 22.1705 3.3295C22.3815 3.54048 22.5 3.82663 22.5 4.125C22.5 4.42337 22.3815 4.70952 22.1705 4.9205C21.9595 5.13147 21.6734 5.25 21.375 5.25H2.625C2.32663 5.25 2.04048 5.13147 1.8295 4.9205C1.61853 4.70952 1.5 4.42337 1.5 4.125ZM1.5 11.625C1.5 11.3266 1.61853 11.0405 1.8295 10.8295C2.04048 10.6185 2.32663 10.5 2.625 10.5H21.375C21.6734 10.5 21.9595 10.6185 22.1705 10.8295C22.3815 11.0405 22.5 11.3266 22.5 11.625C22.5 11.9234 22.3815 12.2095 22.1705 12.4205C21.9595 12.6315 21.6734 12.75 21.375 12.75H2.625C2.32663 12.75 2.04048 12.6315 1.8295 12.4205C1.61853 12.2095 1.5 11.9234 1.5 11.625ZM2.625 18H21.375C21.6734 18 21.9595 18.1185 22.1705 18.3295C22.3815 18.5405 22.5 18.8266 22.5 19.125C22.5 19.4234 22.3815 19.7095 22.1705 19.9205C21.9595 20.1315 21.6734 20.25 21.375 20.25H2.625C2.32663 20.25 2.04048 20.1315 1.8295 19.9205C1.61853 19.7095 1.5 19.4234 1.5 19.125C1.5 18.8266 1.61853 18.5405 1.8295 18.3295C2.04048 18.1185 2.32663 18 2.625 18Z" fill="white"/>
</svg>
