<svg xmlns="http://www.w3.org/2000/svg" version="1.1" xmlns:xlink="http://www.w3.org/1999/xlink" xmlns:svgjs="http://svgjs.com/svgjs" width="512" height="512" x="0" y="0" viewBox="0 0 32 32" style="enable-background:new 0 0 512 512" xml:space="preserve" class=""><circle r="16" cx="16" cy="16" fill="#f0f6fc" shape="circle" transform="matrix(0.9,0,0,0.9,1.5999999999999996,1.5999999999999996)"></circle><g transform="matrix(0.8,0,0,0.8,3.1999999999999993,3.1999999999999993)"><path d="M16 5a1 1 0 0 0 1-1V3a1 1 0 0 0-2 0v1a1 1 0 0 0 1 1zM16 27a1 1 0 0 0-1 1v1a1 1 0 0 0 2 0v-1a1 1 0 0 0-1-1zM29 15h-1a1 1 0 0 0 0 2h1a1 1 0 0 0 0-2zM4 15H3a1 1 0 0 0 0 2h1a1 1 0 0 0 0-2zM24.485 6.1l-.707.707a1 1 0 1 0 1.414 1.414l.708-.706A1 1 0 0 0 24.485 6.1zM6.808 23.778l-.708.707A1 1 0 1 0 7.515 25.9l.707-.707a1 1 0 0 0-1.414-1.415zM25.192 23.778a1 1 0 0 0-1.414 1.414l.707.708a1 1 0 0 0 1.415-1.415zM6.808 8.222a1 1 0 0 0 1.414-1.414L7.515 6.1A1 1 0 0 0 6.1 7.515zM24.7 17.483a1 1 0 0 0-1-.243 6.917 6.917 0 0 1-2.072.308 7.185 7.185 0 0 1-7.178-7.177 6.911 6.911 0 0 1 .31-2.071 1 1 0 0 0-1.241-1.257 9.176 9.176 0 1 0 11.439 11.44 1 1 0 0 0-.258-1z" fill="#000000" data-original="#000000" class=""></path></g></svg>