<svg width="16" height="16" viewBox="0 0 16 16" fill="none" xmlns="http://www.w3.org/2000/svg">
<path d="M8.878 0.391999L14.128 3.437C14.668 3.751 15 4.327 15 4.951V11.049C15 11.3556 14.9195 11.6569 14.7665 11.9226C14.6134 12.1883 14.3932 12.4092 14.128 12.563L8.878 15.608C8.61125 15.7627 8.30836 15.8442 8 15.8442C7.69164 15.8442 7.38875 15.7627 7.122 15.608L1.872 12.563C1.60675 12.4092 1.38658 12.1883 1.23354 11.9226C1.0805 11.6569 0.999966 11.3556 1 11.049V4.951C1 4.327 1.332 3.75 1.872 3.437L7.122 0.391999C7.38875 0.237288 7.69164 0.155807 8 0.155807C8.30836 0.155807 8.61125 0.237288 8.878 0.391999ZM7.875 1.69L3.245 4.375L8 7.133L12.755 4.375L8.125 1.69C8.08706 1.66786 8.04393 1.65619 8 1.65619C7.95607 1.65619 7.91294 1.66786 7.875 1.69ZM2.5 5.677V11.049C2.5 11.139 2.547 11.22 2.625 11.265L7.25 13.948V8.432L2.5 5.677ZM8.75 13.948L13.375 11.265C13.4129 11.2431 13.4444 11.2116 13.4664 11.1737C13.4883 11.1358 13.4999 11.0928 13.5 11.049V5.677L8.75 8.432V13.948Z" fill="#7D8590"/>
</svg>
