<svg width="16" height="16" viewBox="0 0 16 16" fill="none" xmlns="http://www.w3.org/2000/svg">
<path d="M10.68 11.74C9.47436 12.6758 7.95742 13.117 6.43795 12.9738C4.91848 12.8306 3.5107 12.1137 2.50116 10.9691C1.49163 9.82445 0.956228 8.33814 1.00394 6.81269C1.05166 5.28723 1.6789 3.83728 2.758 2.758C3.83728 1.6789 5.28723 1.05166 6.81269 1.00394C8.33814 0.956228 9.82445 1.49163 10.9691 2.50116C12.1137 3.5107 12.8306 4.91848 12.9738 6.43795C13.117 7.95742 12.6758 9.47436 11.74 10.68L14.78 13.72C14.8787 13.8117 14.9509 13.9283 14.9889 14.0575C15.0269 14.1868 15.0294 14.3239 14.996 14.4544C14.9626 14.5849 14.8947 14.704 14.7993 14.7992C14.7039 14.8943 14.5846 14.962 14.454 14.995C14.3236 15.0284 14.1867 15.0261 14.0575 14.9882C13.9283 14.9504 13.8117 14.8785 13.72 14.78L10.68 11.74ZM11.5 7C11.5089 6.4036 11.3991 5.81139 11.177 5.25782C10.9549 4.70424 10.625 4.20035 10.2064 3.77545C9.78779 3.35056 9.28887 3.01315 8.73867 2.78284C8.18847 2.55253 7.59796 2.43392 7.0015 2.43392C6.40504 2.43392 5.81453 2.55253 5.26432 2.78284C4.71412 3.01315 4.2152 3.35056 3.7966 3.77545C3.37799 4.20035 3.04805 4.70424 2.82597 5.25782C2.60389 5.81139 2.49411 6.4036 2.503 7C2.52061 8.18146 3.00231 9.30856 3.84403 10.1378C4.68574 10.9671 5.81991 11.4319 7.0015 11.4319C8.18309 11.4319 9.31725 10.9671 10.159 10.1378C11.0007 9.30856 11.4824 8.18146 11.5 7Z" fill="#7D8590"/>
</svg>
