<svg xmlns="http://www.w3.org/2000/svg" version="1.1" xmlns:xlink="http://www.w3.org/1999/xlink" xmlns:svgjs="http://svgjs.com/svgjs" width="512" height="512" x="0" y="0" viewBox="0 0 24 24" style="enable-background:new 0 0 512 512" xml:space="preserve" class=""><circle r="12" cx="12" cy="12" fill="#f0f6fc" shape="circle" transform="matrix(0.9,0,0,0.9,1.1999999999999993,1.1999999999999993)"></circle><g transform="matrix(0.8000000000000005,0,0,0.8000000000000005,2.3999999999999986,2.3999999999999986)"><g fill="#f1c506"><circle cx="12" cy="12" r="5" fill="#f1c506" data-original="#f1c506" class=""></circle><g fill="#f2b108"><path d="M21 13h-1a1 1 0 0 1 0-2h1a1 1 0 0 1 0 2zM4 13H3a1 1 0 0 1 0-2h1a1 1 0 0 1 0 2zM17.66 7.34a1 1 0 0 1-.66-.29 1 1 0 0 1 0-1.41l.71-.71a1 1 0 1 1 1.41 1.41l-.71.71a1 1 0 0 1-.75.29zM5.64 19.36a1 1 0 0 1-.71-.29 1 1 0 0 1 0-1.41l.71-.66a1 1 0 0 1 1.41 1.41l-.71.71a1 1 0 0 1-.7.24zM12 5a1 1 0 0 1-1-1V3a1 1 0 0 1 2 0v1a1 1 0 0 1-1 1zM12 22a1 1 0 0 1-1-1v-1a1 1 0 0 1 2 0v1a1 1 0 0 1-1 1zM6.34 7.34a1 1 0 0 1-.7-.29l-.71-.71a1 1 0 0 1 1.41-1.41l.71.71a1 1 0 0 1 0 1.41 1 1 0 0 1-.71.29zM18.36 19.36a1 1 0 0 1-.7-.29l-.66-.71A1 1 0 0 1 18.36 17l.71.71a1 1 0 0 1 0 1.41 1 1 0 0 1-.71.24z" fill="#f2b108" data-original="#f2b108" class=""></path></g></g></g></svg>