<svg width="16" height="16" viewBox="0 0 16 16" fill="none" xmlns="http://www.w3.org/2000/svg">
<path d="M1.99999 5.5C1.99992 4.91987 2.14405 4.34883 2.41942 3.83822C2.69479 3.32761 3.09276 2.89346 3.57754 2.57481C4.06232 2.25617 4.61871 2.06302 5.19665 2.01274C5.7746 1.96246 6.35598 2.05663 6.8885 2.28678C7.42102 2.51692 7.88799 2.87583 8.24739 3.33121C8.6068 3.78659 8.84738 4.32417 8.94749 4.8956C9.04759 5.46702 9.0041 6.05437 8.8209 6.60481C8.63771 7.15526 8.32056 7.65153 7.89799 8.049C8.6948 8.43566 9.38662 9.00876 9.91478 9.71971C10.4429 10.4307 10.7919 11.2585 10.932 12.133C10.9474 12.2303 10.9435 12.3297 10.9206 12.4255C10.8976 12.5213 10.8559 12.6117 10.798 12.6914C10.7401 12.7711 10.6671 12.8386 10.5831 12.8901C10.4991 12.9416 10.4058 12.9761 10.3085 12.9915C10.2112 13.0069 10.1118 13.003 10.016 12.9801C9.92017 12.9571 9.82983 12.9154 9.75011 12.8576C9.67039 12.7997 9.60286 12.7266 9.55136 12.6426C9.49987 12.5586 9.46542 12.4653 9.44999 12.368C9.3 11.4283 8.81992 10.5729 8.09596 9.9553C7.372 9.33772 6.45158 8.99848 5.49999 8.99848C4.5484 8.99848 3.62799 9.33772 2.90402 9.9553C2.18006 10.5729 1.69998 11.4283 1.54999 12.368C1.5345 12.4653 1.49998 12.5586 1.44843 12.6426C1.39687 12.7266 1.32928 12.7996 1.24952 12.8574C1.16975 12.9153 1.07937 12.9568 0.983542 12.9798C0.88771 13.0027 0.788301 13.0065 0.690991 12.991C0.593682 12.9755 0.500377 12.941 0.416405 12.8894C0.332433 12.8379 0.259438 12.7703 0.201587 12.6905C0.143736 12.6108 0.102162 12.5204 0.07924 12.4246C0.0563177 12.3287 0.0524954 12.2293 0.0679914 12.132C0.208326 11.2578 0.557366 10.4304 1.08552 9.71976C1.61368 9.00917 2.30538 8.4364 3.10199 8.05C2.75366 7.72293 2.47614 7.32787 2.28659 6.88926C2.09704 6.45065 1.9995 5.97782 1.99999 5.5ZM11 4C11.581 4.00041 12.1494 4.16946 12.6362 4.48665C13.123 4.80384 13.5072 5.25551 13.7423 5.78685C13.9774 6.31819 14.0532 6.90633 13.9604 7.4799C13.8677 8.05347 13.6105 8.58779 13.22 9.018C13.8287 9.32019 14.3695 9.74304 14.8096 10.2608C15.2497 10.7786 15.5799 11.3806 15.78 12.03C15.8196 12.1561 15.8252 12.2904 15.7962 12.4193C15.7671 12.5482 15.7045 12.6672 15.6146 12.7641C15.5247 12.8609 15.4108 12.9323 15.2844 12.9709C15.158 13.0096 15.0237 13.0141 14.895 12.984C14.7664 12.9541 14.648 12.8908 14.5516 12.8006C14.4553 12.7103 14.3843 12.5963 14.346 12.47C14.1668 11.8902 13.8402 11.3668 13.3981 10.9511C12.956 10.5353 12.4137 10.2414 11.824 10.098C11.6602 10.0585 11.5145 9.96495 11.4104 9.83252C11.3063 9.70009 11.2498 9.53646 11.25 9.368V9.016C11.2499 8.87637 11.2888 8.73948 11.3623 8.62076C11.4358 8.50203 11.541 8.40618 11.666 8.344C11.9692 8.19375 12.2126 7.94543 12.3568 7.63935C12.501 7.33327 12.5375 6.98743 12.4604 6.65799C12.3833 6.32855 12.197 6.03487 11.9319 5.82465C11.6667 5.61443 11.3383 5.50002 11 5.5C10.8011 5.5 10.6103 5.42098 10.4697 5.28033C10.329 5.13968 10.25 4.94891 10.25 4.75C10.25 4.55109 10.329 4.36032 10.4697 4.21967C10.6103 4.07902 10.8011 4 11 4ZM5.49999 3.5C5.23365 3.49398 4.96879 3.54123 4.72097 3.63897C4.47314 3.73672 4.24734 3.88299 4.05682 4.0692C3.8663 4.25542 3.7149 4.47782 3.61152 4.72334C3.50813 4.96887 3.45484 5.23258 3.45478 5.49899C3.45471 5.7654 3.50787 6.02913 3.61113 6.27471C3.71439 6.52029 3.86568 6.74277 4.0561 6.92908C4.24653 7.11538 4.47226 7.26177 4.72004 7.35964C4.96782 7.45751 5.23265 7.50489 5.49899 7.499C6.02155 7.48744 6.51883 7.27178 6.88436 6.89816C7.2499 6.52455 7.45465 6.02268 7.45478 5.49999C7.45491 4.9773 7.25041 4.47533 6.88506 4.10153C6.51971 3.72773 6.02255 3.51182 5.49999 3.5Z" fill="#7D8590"/>
</svg>
